 PTC IGES file: simsample.igs                                           S      1
1H,,1H;,9HSIMSAMPLE,13Hsimsample.igs,                                   G      1
52HCreo Parametric by Parametric Technology Corporation,7H2013230,32,   G      2
38,7,38,15,9HSIMSAMPLE,1.,2,2HMM,32768,0.5,15H20140310.140656,          G      3
0.000911007,9.11043,4HDash,7HUnknown,10,0,15H20140310.140656;           G      4
     314       1       1       1       0       0       0       001000200D      1
     314       0       4       1       0                   COLOR       1D      2
     314       2       1       1       0       0       0       001000200D      3
     314       0       1       1       0                   COLOR       2D      4
     314       3       1       1       0       0       0       001000200D      5
     314       0       1       1       0                   COLOR       3D      6
     314       4       1       1       0       0       0       001000200D      7
     314       0       2       1       0                   COLOR       4D      8
     314       5       1       1       0       0       0       001000200D      9
     314       0       8       1       0                   COLOR       5D     10
     314       6       1       1       0       0       0       001000200D     11
     314       0       8       1       0                   COLOR       6D     12
     314       7       1       1       0       0       0       001000200D     13
     314       0       8       1       0                   COLOR       7D     14
     314       8       1       1       0       0       0       001000200D     15
     314       0       8       1       0                   COLOR       8D     16
     314       9       1       1       0       0       0       001000200D     17
     314       0       5       1       0                   COLOR       9D     18
     314      10       1       1       0       0       0       001000200D     19
     314       0       8       1       0                   COLOR      10D     20
     110      11       1       1       0       0       0       001010000D     21
     110       0       0       1       0                    LINE       1D     22
     110      12       1       1       0       0       0       001010000D     23
     110       0       0       1       0                    LINE       2D     24
     110      13       1       1       0       0       0       001010000D     25
     110       0       0       1       0                    LINE       3D     26
     110      14       1       1       0       0       0       001010000D     27
     110       0       0       1       0                    LINE       4D     28
     110      15       1       1       0       0       0       001010000D     29
     110       0       0       1       0                    LINE       5D     30
     110      16       1       1       0       0       0       001010000D     31
     110       0       0       1       0                    LINE       6D     32
     110      17       1       1       0       0       0       001010000D     33
     110       0       0       1       0                    LINE       7D     34
     110      18       1       1       0       0       0       001010000D     35
     110       0       0       1       0                    LINE       8D     36
     110      19       1       1       0       0       0       001010000D     37
     110       0       0       1       0                    LINE       9D     38
     110      20       1       1       0       0       0       001010000D     39
     110       0       0       1       0                    LINE      10D     40
     110      21       1       1       0       0       0       001010000D     41
     110       0       0       1       0                    LINE      11D     42
     110      22       1       1       0       0       0       001010000D     43
     110       0       0       1       0                    LINE      12D     44
     502      23       1       1       0       0       0       001010000D     45
     502       0       0       2       1                  VERTEX       1D     46
     504      25       1       1       0       0       0       000010001D     47
     504       0       0       3       1                    EDGE       1D     48
     128      28       1       1       0       0       0       001010000D     49
     128       0       0       3       0                  SPLSRF       1D     50
     508      31       1       1       0       0       0       001010000D     51
     508       0       0       1       1                EDGELOOP       1D     52
     510      32       1       1       0       0       0       000010000D     53
     510       0       0       1       1                    FACE       1D     54
     128      33       1       1       0       0       0       001010000D     55
     128       0       0       4       0                  SPLSRF       2D     56
     508      37       1       1       0       0       0       001010000D     57
     508       0       0       1       1                EDGELOOP       2D     58
     510      38       1       1       0       0       0       000010000D     59
     510       0       0       1       1                    FACE       2D     60
     128      39       1       1       0       0       0       001010000D     61
     128       0       0       4       0                  SPLSRF       3D     62
     508      43       1       1       0       0       0       001010000D     63
     508       0       0       1       1                EDGELOOP       3D     64
     510      44       1       1       0       0       0       000010000D     65
     510       0       0       1       1                    FACE       3D     66
     128      45       1       1       0       0       0       001010000D     67
     128       0       0       4       0                  SPLSRF       4D     68
     508      49       1       1       0       0       0       001010000D     69
     508       0       0       1       1                EDGELOOP       4D     70
     510      50       1       1       0       0       0       000010000D     71
     510       0       0       1       1                    FACE       4D     72
     128      51       1       1       0       0       0       001010000D     73
     128       0       0       4       0                  SPLSRF       5D     74
     508      55       1       1       0       0       0       001010000D     75
     508       0       0       1       1                EDGELOOP       5D     76
     510      56       1       1       0       0       0       000010000D     77
     510       0       0       1       1                    FACE       5D     78
     128      57       1       1       0       0       0       001010000D     79
     128       0       0       3       0                  SPLSRF       6D     80
     508      60       1       1       0       0       0       001010000D     81
     508       0       0       1       1                EDGELOOP       6D     82
     510      61       1       1       0       0       0       000010000D     83
     510       0       0       1       1                    FACE       6D     84
     514      62       1       1       0       0       0       000000000D     85
     514       0       0       1       1                   SHELL       1D     86
     186      63       1       1       0       0       0       000000000D     87
     186       0       0       1       0                    MSBR       1D     88
314,1.1D0,1.2D0,1D2;                                                   1P      1
314,3.92D1,1.2D0,1.2D0;                                                3P      2
314,4.1D1,0D0,2.2D1;                                                   5P      3
314,6D1,4D1,2D1;                                                       7P      4
314,6.952D1,7.426D1,7.9D1;                                             9P      5
314,7.84314D1,7.84314D1,7.84314D1;                                    11P      6
314,8.784D1,9.49D1,1D2;                                               13P      7
314,9.6D1,9.6D1,9.6D1;                                                15P      8
314,9.8D1,6.27D1,0D0;                                                 17P      9
314,1D2,1D2,9.49D1;                                                   19P     10
110,0D0,0D0,0D0,0D0,0D0,5D0;                                          21P     11
110,0D0,0D0,5D0,3D0,0D0,5D0;                                          23P     12
110,3D0,0D0,5D0,3D0,0D0,0D0;                                          25P     13
110,3D0,0D0,0D0,0D0,0D0,0D0;                                          27P     14
110,0D0,0D0,0D0,0D0,7D0,0D0;                                          29P     15
110,3D0,0D0,0D0,3D0,7D0,0D0;                                          31P     16
110,3D0,0D0,5D0,3D0,7D0,5D0;                                          33P     17
110,0D0,0D0,5D0,0D0,7D0,5D0;                                          35P     18
110,0D0,7D0,0D0,0D0,7D0,5D0;                                          37P     19
110,3D0,7D0,0D0,0D0,7D0,0D0;                                          39P     20
110,3D0,7D0,5D0,3D0,7D0,0D0;                                          41P     21
110,0D0,7D0,5D0,3D0,7D0,5D0;                                          43P     22
502,8,0D0,0D0,0D0,0D0,0D0,5D0,3D0,0D0,5D0,3D0,0D0,0D0,0D0,7D0,        45P     23
0D0,0D0,7D0,5D0,3D0,7D0,5D0,3D0,7D0,0D0;                              45P     24
504,12,21,45,1,45,2,23,45,2,45,3,25,45,3,45,4,27,45,4,45,1,37,        47P     25
45,5,45,6,43,45,6,45,7,41,45,7,45,8,39,45,8,45,5,29,45,1,45,5,        47P     26
35,45,2,45,6,33,45,3,45,7,31,45,4,45,8;                               47P     27
128,1,1,1,1,0,0,1,0,0,-6D-2,-6D-2,3.06D0,3.06D0,-5.1D0,-5.1D0,        49P     28
1D-1,1D-1,1D0,1D0,1D0,1D0,-6D-2,0D0,5.1D0,3.06D0,0D0,5.1D0,           49P     29
-6D-2,0D0,-1D-1,3.06D0,0D0,-1D-1,-6D-2,3.06D0,-5.1D0,1D-1;            49P     30
508,4,0,47,1,1,0,0,47,2,1,0,0,47,3,1,0,0,47,4,1,0;                    51P     31
510,49,1,0,51;                                                        53P     32
128,1,1,1,1,0,0,1,0,0,-1D-1,-1D-1,5.1D0,5.1D0,-1.4D-1,-1.4D-1,        55P     33
7.14D0,7.14D0,1D0,1D0,1D0,1D0,0D0,-1.4D-1,-1D-1,0D0,-1.4D-1,          55P     34
5.1D0,0D0,7.14D0,-1D-1,0D0,7.14D0,5.1D0,-1D-1,5.1D0,-1.4D-1,          55P     35
7.14D0;                                                               55P     36
508,4,0,47,1,0,0,0,47,9,1,0,0,47,5,1,0,0,47,10,0,0;                   57P     37
510,55,1,0,57;                                                        59P     38
128,1,1,1,1,0,0,1,0,0,-6D-2,-6D-2,3.06D0,3.06D0,-1.4D-1,-1.4D-1,      61P     39
7.14D0,7.14D0,1D0,1D0,1D0,1D0,3.06D0,-1.4D-1,0D0,-6D-2,-1.4D-1,       61P     40
0D0,3.06D0,7.14D0,0D0,-6D-2,7.14D0,0D0,-6D-2,3.06D0,-1.4D-1,          61P     41
7.14D0;                                                               61P     42
508,4,0,47,4,0,0,0,47,12,1,0,0,47,8,1,0,0,47,9,0,0;                   63P     43
510,61,1,0,63;                                                        65P     44
128,1,1,1,1,0,0,1,0,0,-1D-1,-1D-1,5.1D0,5.1D0,-1.4D-1,-1.4D-1,        67P     45
7.14D0,7.14D0,1D0,1D0,1D0,1D0,3D0,-1.4D-1,5.1D0,3D0,-1.4D-1,          67P     46
-1D-1,3D0,7.14D0,5.1D0,3D0,7.14D0,-1D-1,-1D-1,5.1D0,-1.4D-1,          67P     47
7.14D0;                                                               67P     48
508,4,0,47,3,0,0,0,47,11,1,0,0,47,7,1,0,0,47,12,0,0;                  69P     49
510,67,1,0,69;                                                        71P     50
128,1,1,1,1,0,0,1,0,0,-6D-2,-6D-2,3.06D0,3.06D0,-1.4D-1,-1.4D-1,      73P     51
7.14D0,7.14D0,1D0,1D0,1D0,1D0,-6D-2,-1.4D-1,5D0,3.06D0,-1.4D-1,       73P     52
5D0,-6D-2,7.14D0,5D0,3.06D0,7.14D0,5D0,-6D-2,3.06D0,-1.4D-1,          73P     53
7.14D0;                                                               73P     54
508,4,0,47,2,0,0,0,47,10,1,0,0,47,6,1,0,0,47,11,0,0;                  75P     55
510,73,1,0,75;                                                        77P     56
128,1,1,1,1,0,0,1,0,0,-6D-2,-6D-2,3.06D0,3.06D0,-5.1D0,-5.1D0,        79P     57
1D-1,1D-1,1D0,1D0,1D0,1D0,-6D-2,7D0,5.1D0,3.06D0,7D0,5.1D0,           79P     58
-6D-2,7D0,-1D-1,3.06D0,7D0,-1D-1,-6D-2,3.06D0,-5.1D0,1D-1;            79P     59
508,4,0,47,5,0,0,0,47,8,0,0,0,47,7,0,0,0,47,6,0,0;                    81P     60
510,79,1,0,81;                                                        83P     61
514,6,53,0,59,1,65,1,71,1,77,1,83,1;                                  85P     62
186,85,1,0;                                                           87P     63
S      1G      4D     88P     63                                        T      1
